<svg width="22" height="18" viewBox="0 0 22 18" fill="none" xmlns="http://www.w3.org/2000/svg">
<path d="M20.625 15C20.625 15.3978 20.4801 15.7794 20.2223 16.0607C19.9644 16.342 19.6147 16.5 19.25 16.5H2.75C2.38533 16.5 2.03559 16.342 1.77773 16.0607C1.51987 15.7794 1.375 15.3978 1.375 15V6C1.375 5.60218 1.51987 5.22064 1.77773 4.93934C2.03559 4.65804 2.38533 4.5 2.75 4.5H4.3615C5.45495 4.49935 6.50343 4.0251 7.2765 3.1815L8.41775 1.9395C8.67488 1.65891 9.02344 1.50088 9.38713 1.5H12.6101C12.9748 1.50008 13.3244 1.65818 13.5823 1.9395L14.7208 3.1815C15.1039 3.59957 15.5587 3.9312 16.0594 4.15743C16.56 4.38366 17.0966 4.50007 17.6385 4.5H19.25C19.6147 4.5 19.9644 4.65804 20.2223 4.93934C20.4801 5.22064 20.625 5.60218 20.625 6V15ZM2.75 3C2.02065 3 1.32118 3.31607 0.805456 3.87868C0.289731 4.44129 0 5.20435 0 6L0 15C0 15.7956 0.289731 16.5587 0.805456 17.1213C1.32118 17.6839 2.02065 18 2.75 18H19.25C19.9793 18 20.6788 17.6839 21.1945 17.1213C21.7103 16.5587 22 15.7956 22 15V6C22 5.20435 21.7103 4.44129 21.1945 3.87868C20.6788 3.31607 19.9793 3 19.25 3H17.6385C16.9092 2.99983 16.2099 2.68365 15.6942 2.121L14.5558 0.879C14.0401 0.316352 13.3408 0.000169912 12.6115 0H9.3885C8.65921 0.000169912 7.95986 0.316352 7.44425 0.879L6.30575 2.121C5.79014 2.68365 5.09079 2.99983 4.3615 3H2.75Z" fill="white"/>
<path d="M11 13.5C10.0883 13.5 9.21398 13.1049 8.56932 12.4017C7.92466 11.6984 7.5625 10.7446 7.5625 9.75C7.5625 8.75544 7.92466 7.80161 8.56932 7.09835C9.21398 6.39509 10.0883 6 11 6C11.9117 6 12.786 6.39509 13.4307 7.09835C14.0753 7.80161 14.4375 8.75544 14.4375 9.75C14.4375 10.7446 14.0753 11.6984 13.4307 12.4017C12.786 13.1049 11.9117 13.5 11 13.5ZM11 15C12.2764 15 13.5004 14.4469 14.403 13.4623C15.3055 12.4777 15.8125 11.1424 15.8125 9.75C15.8125 8.35761 15.3055 7.02226 14.403 6.03769C13.5004 5.05312 12.2764 4.5 11 4.5C9.72365 4.5 8.49957 5.05312 7.59705 6.03769C6.69453 7.02226 6.1875 8.35761 6.1875 9.75C6.1875 11.1424 6.69453 12.4777 7.59705 13.4623C8.49957 14.4469 9.72365 15 11 15ZM4.125 6.75C4.125 6.94891 4.05257 7.13968 3.92364 7.28033C3.7947 7.42098 3.61984 7.5 3.4375 7.5C3.25516 7.5 3.0803 7.42098 2.95136 7.28033C2.82243 7.13968 2.75 6.94891 2.75 6.75C2.75 6.55109 2.82243 6.36032 2.95136 6.21967C3.0803 6.07902 3.25516 6 3.4375 6C3.61984 6 3.7947 6.07902 3.92364 6.21967C4.05257 6.36032 4.125 6.55109 4.125 6.75Z" fill="white"/>
</svg>
