<svg width="114" height="30" viewBox="0 0 114 30" fill="none" xmlns="http://www.w3.org/2000/svg">
<path d="M5.82232 0.473682C3.50673 1.36821 0.961504 3.89215 0.157575 7.06266C-0.860691 11.0784 3.37595 12.7771 3.72372 12.2209C4.13267 11.5666 2.96457 11.3454 2.72408 9.26157C2.41332 6.57021 3.77005 3.56304 5.47765 2.24352C5.79461 1.99822 5.77976 2.3396 5.77976 2.97064C5.77976 4.09922 5.71216 14.2309 5.71216 16.3454C5.71216 19.2065 5.58404 20.11 5.35375 21.0029C5.12079 21.9074 4.74576 22.5188 5.02969 22.7543C5.3471 23.0176 6.70227 22.3911 7.4867 21.3815C8.42739 20.1705 8.75676 18.7159 8.81594 17.1367C8.88731 15.2328 8.88421 12.2115 8.88731 10.4883C8.88997 8.90793 8.91613 4.28013 8.85717 1.49802C8.84276 0.815263 6.79071 0.0993943 5.82232 0.473682Z" fill="#FFFFF3"/>
<path d="M88.0423 13.8642C87.9676 15.3517 87.6106 16.5143 87.1675 17.3344C86.3097 18.9221 84.5298 19.4149 83.774 17.1328C83.3622 15.8887 83.3429 13.811 83.6388 12.0749C83.9402 10.3065 84.7821 8.97086 86.1756 9.09126C87.5503 9.21044 88.1937 10.8439 88.0423 13.8644V13.8642ZM64.8687 23.0928C64.8501 25.5642 64.4283 27.731 63.5239 28.3606C62.241 29.2531 60.5168 28.5834 60.8739 26.7801C61.1897 25.1842 62.6839 23.5544 64.8725 21.563C64.8725 21.563 64.8769 22.0172 64.8687 23.0928ZM64.5185 13.8497C64.44 15.2046 64.0592 16.5654 63.6436 17.3344C62.7858 18.9221 60.9931 19.4184 60.2501 17.1328C59.7421 15.5711 59.8638 13.5502 60.1149 12.2767C60.4412 10.6244 61.2321 9.09147 62.6517 9.09147C64.0322 9.09147 64.7131 10.4882 64.5185 13.8497ZM51.0942 13.8292C51.0099 15.2638 50.7065 16.4632 50.2195 17.3344C49.3382 18.9113 47.5947 19.4113 46.826 17.1328C46.2717 15.4899 46.4603 13.2499 46.6908 12.0398C47.0331 10.244 47.89 8.97086 49.2276 9.09147C50.6017 9.21534 51.2695 10.8439 51.0942 13.8292ZM112.614 15.5051C112.278 15.5051 112.125 15.8244 111.998 16.3616C111.558 18.2307 111.096 18.6525 110.5 18.6525C109.834 18.6525 109.235 17.7273 109.081 15.8748C108.96 14.4182 108.98 11.7366 109.134 9.06919C109.166 8.52114 109.002 7.97883 107.408 7.44489C106.722 7.21512 105.725 6.87681 105.229 7.98189C103.827 11.1042 103.278 13.5829 103.149 14.5895C103.142 14.6416 103.073 14.6524 103.061 14.5306C102.978 13.7242 102.794 12.2585 102.771 9.17957C102.767 8.57879 102.629 8.06754 101.91 7.6489C101.443 7.37702 100.027 6.89664 99.5168 7.4684C99.0748 7.93569 98.5628 9.19368 98.0311 10.6851C97.5988 11.8973 97.2978 12.717 97.2978 12.717C97.2978 12.717 97.3036 9.44674 97.3087 8.20614C97.3109 7.73823 96.9629 7.58226 96.8579 7.55405C96.3857 7.42772 95.4548 7.21655 95.0598 7.21655C94.5722 7.21655 94.4529 7.46758 94.4529 7.83389C94.4529 7.88193 94.376 12.1395 94.376 15.1167C94.376 15.2461 94.376 15.3871 94.3767 15.5371C94.1072 16.9055 93.2327 18.7628 92.2819 18.7628C91.3297 18.7628 90.8806 17.9865 90.8806 14.4372C90.8806 12.3666 90.948 11.4662 90.981 9.96862C91.0003 9.10598 91.0375 8.44367 91.0353 8.29342C91.0282 7.83246 90.1642 7.60004 89.7619 7.51419C89.3578 7.42772 89.0067 7.39399 88.7326 7.4085C88.3444 7.42894 88.0698 7.66341 88.0698 7.98639C88.0698 8.15974 88.072 8.48885 88.072 8.48885C87.5722 7.76439 86.7683 7.2603 86.2334 7.11414C84.7927 6.71962 83.2895 7.06917 82.1555 8.53259C81.2543 9.69511 80.711 11.0122 80.4971 12.904C80.3408 14.2873 80.3918 15.6898 80.6698 16.8761C80.334 18.2146 79.7109 18.7628 79.0284 18.7628C78.0377 18.7628 77.3195 17.2718 77.4029 14.6925C77.4578 12.996 77.826 11.8055 78.2283 10.0831C78.3998 9.34883 78.2604 8.96452 77.9109 8.59617C77.5901 8.25826 76.9068 8.08553 75.9249 8.29772C75.2253 8.44919 74.225 8.61211 73.3098 8.73721C73.3098 8.73721 73.3653 8.53382 73.4105 8.17568C73.6485 6.29709 71.4349 6.44938 70.7285 7.04934C70.3071 7.40769 70.0201 7.83021 69.9113 8.58983C69.7384 9.79548 70.8045 10.3642 70.8045 10.3642C70.455 11.8409 69.5974 13.7698 68.7121 15.1645C68.238 15.9116 67.8754 16.4654 67.407 17.0539C67.3918 14.6921 67.4085 12.3302 67.4571 9.96883C67.4764 9.10619 67.5139 8.46145 67.5119 8.311C67.5066 7.97412 67.2931 7.84657 66.8491 7.68549C66.4564 7.5428 65.9922 7.44428 65.5106 7.40952C64.9028 7.36619 64.5367 7.66321 64.5464 8.0148C64.5482 8.08124 64.5482 8.48885 64.5482 8.48885C64.0484 7.76439 63.2444 7.2603 62.7096 7.11414C61.2688 6.71962 59.7656 7.06917 58.6316 8.53259C57.7306 9.69511 57.1406 11.3268 56.9732 12.8897C56.8176 14.3462 56.8462 15.584 57.0586 16.6269C56.8296 17.6711 56.1709 18.7631 55.4263 18.7631C54.4741 18.7631 53.9324 17.9865 53.9324 14.4372C53.9324 12.3666 53.9998 11.4662 54.033 9.96862C54.0523 9.10619 54.0893 8.44367 54.0873 8.29342C54.0802 7.83246 53.216 7.60025 52.8137 7.51419C52.393 7.42424 52.0298 7.39154 51.7507 7.41055C51.3828 7.43569 51.1239 7.73966 51.1239 7.96636V8.48885C50.624 7.76439 49.8201 7.2603 49.2853 7.11414C47.8445 6.71962 46.3497 7.07489 45.2073 8.53259C44.4626 9.48293 43.8595 10.5365 43.5492 12.8689C43.4594 13.5429 43.4197 14.1743 43.425 14.764C43.128 16.4394 41.8158 18.3704 40.7428 18.3704C40.1149 18.3704 39.5166 17.2469 39.5166 14.853C39.5166 11.6641 39.7308 7.12355 39.7671 6.68609C39.7671 6.68609 41.123 6.66483 41.3854 6.66197C42.0619 6.65502 42.6743 6.66994 43.5753 6.62722C44.027 6.60617 44.4624 5.11045 43.996 4.92545C43.7845 4.84164 42.2908 4.76846 41.6986 4.75681C41.2008 4.74658 39.8145 4.65174 39.8145 4.65174C39.8145 4.65174 39.9389 1.63802 39.9679 1.31974C39.9923 1.0542 39.6199 0.91765 39.4067 0.834861C38.8876 0.632488 38.4232 0.53539 37.8729 0.430728C37.1122 0.286001 36.7673 0.427662 36.6999 1.01945C36.5984 1.91786 36.5459 4.54932 36.5459 4.54932C35.9877 4.54932 34.0811 4.44875 33.523 4.44875C33.0043 4.44875 32.4444 6.506 33.1617 6.53135C33.9867 6.56079 35.4245 6.58654 36.3776 6.61271C36.3776 6.61271 36.3351 11.228 36.3351 12.6532C36.3351 12.8045 36.336 12.9507 36.3368 13.0923C35.8122 15.6138 33.9645 16.976 33.9645 16.976C34.3613 15.3078 33.5507 14.0549 32.0907 12.9944C31.5527 12.6038 30.4908 11.864 29.3027 11.0533C29.3027 11.0533 29.9907 10.4277 30.6012 9.16935C31.0334 8.27768 31.0522 7.25785 29.9907 7.03278C28.237 6.66075 26.7912 7.84861 26.3599 9.11682C26.0256 10.0992 26.2038 10.828 26.8586 11.5852C26.9062 11.6405 26.9583 11.6972 27.0115 11.754C26.6159 12.4576 26.0719 13.4051 25.6113 14.1398C24.3329 16.1798 23.3671 17.7931 22.6372 17.7931C22.0538 17.7931 22.0616 16.1549 22.0616 14.6212C22.0616 13.299 22.1675 11.311 22.2522 9.25316C22.2801 8.57245 21.9109 8.18467 21.2925 7.83349C20.9165 7.62007 20.1144 7.20061 19.6498 7.20061C18.9543 7.20061 16.9479 7.2879 15.0523 12.3452C14.8134 12.9825 14.3439 14.144 14.3439 14.144L14.3845 8.06243C14.3845 7.91975 14.302 7.78197 14.1134 7.68774C13.794 7.52768 12.9409 7.20061 12.1822 7.20061C11.8209 7.20061 11.6402 7.35556 11.6402 7.66464L11.5742 17.1794C11.5742 17.9025 11.5946 18.7459 11.6721 19.1146C11.7493 19.4838 11.8745 19.7843 12.0292 19.963C12.1842 20.1414 12.363 20.2778 12.658 20.3338C12.9327 20.3859 14.4364 20.564 14.5146 20.0341C14.6081 19.3988 14.6119 18.7119 15.4014 16.1498C16.6307 12.1608 18.2332 10.2147 18.9869 9.5234C19.1187 9.40279 19.269 9.39544 19.2617 9.59311C19.2298 10.4676 19.1165 12.6532 19.0405 14.5093C18.8364 19.4777 19.8163 20.3986 21.2169 20.3986C22.2884 20.3986 23.7987 19.4168 25.4176 16.9315C26.3197 15.5465 27.2176 14.1591 28.1114 12.7695C28.6019 13.1884 29.1527 13.6391 29.7028 14.1207C30.9817 15.2401 31.4015 16.3039 31.1229 17.3129C30.9101 18.0842 30.1075 18.8792 28.6794 18.1067C28.2632 17.8812 28.0854 17.7068 27.6669 17.4527C27.4422 17.3164 27.0988 17.2755 26.8929 17.4186C26.3583 17.7902 26.0524 18.2633 25.8778 18.8487C25.708 19.4184 26.3266 19.7195 26.9681 19.983C27.5202 20.2097 28.7072 20.4151 29.4639 20.4385C32.4129 20.5294 34.7755 19.1253 36.4202 15.5032C36.7145 18.6314 37.9673 20.4015 40.1441 20.4015C41.5995 20.4015 43.0586 18.6666 43.6968 16.9599C43.8799 17.6555 44.1512 18.2606 44.5014 18.7722C46.1786 21.2232 49.4324 20.6958 51.0669 18.6144C51.5723 17.9713 51.6492 17.7404 51.6492 17.7404C51.8877 19.7054 53.6037 20.392 54.5861 20.392C55.6866 20.392 56.8225 19.9123 57.6189 18.259C57.7122 18.4384 57.8142 18.6099 57.9255 18.7722C59.6027 21.2232 62.8568 20.6958 64.4912 18.6144C64.5683 18.5167 64.6353 18.4284 64.6936 18.3487L64.7415 19.6396L63.2367 20.9125C60.7143 23.0446 58.7983 24.6615 58.6574 26.5448C58.4778 28.9461 60.5884 29.8386 62.1874 29.9555C63.8823 30.0796 65.3366 29.2153 66.229 28.0058C67.0145 26.941 67.5287 24.6494 67.4908 22.3863C67.476 21.48 67.4509 20.3277 67.4316 19.0924C68.3171 18.1441 69.3148 16.9454 70.2333 15.5427C71.2343 14.0138 72.3071 11.9607 72.8563 10.3627C72.8563 10.3627 73.7884 10.3703 74.7832 10.3102C75.1012 10.291 75.1928 10.3511 75.1338 10.5659C75.0629 10.8259 73.877 15.0437 74.9594 17.8534C75.6999 19.777 77.3696 20.3955 78.3595 20.3955C79.5185 20.3955 80.627 19.5885 81.221 18.3902C81.2928 18.5237 81.3675 18.6529 81.4493 18.7725C83.1266 21.2234 86.3691 20.6925 88.0151 18.6144C88.3866 18.1455 88.5974 17.7404 88.5974 17.7404C88.9504 19.7743 90.6656 20.4025 91.6479 20.4025C92.6711 20.4025 93.6424 20.0155 94.4301 18.2962C94.4634 19.0533 94.515 19.6723 94.5968 19.8673C94.6467 19.9869 94.9375 20.1365 95.1489 20.2089C96.0852 20.529 97.0396 20.3777 97.3929 20.3119C97.6376 20.2661 97.8285 20.085 97.8546 19.6177C97.9233 18.3902 97.8812 16.3278 98.2846 14.7949C98.9618 12.2227 99.5937 11.225 99.8934 10.7311C100.061 10.4541 100.25 10.4085 100.257 10.7015C100.271 11.2943 100.303 13.0345 100.566 15.373C100.758 17.0926 101.016 18.1091 101.214 18.4311C101.778 19.351 102.475 19.3945 103.043 19.3945C103.405 19.3945 104.16 19.3025 104.092 18.7171C104.059 18.4317 104.117 16.668 104.785 14.1338C105.221 12.4789 105.948 10.9838 106.21 10.4369C106.307 10.2354 106.352 10.3942 106.35 10.4253C106.295 11.5649 106.171 15.2927 106.674 17.3315C107.357 20.0934 109.331 20.4025 110.019 20.4025C111.488 20.4025 112.689 19.3722 113.093 16.6612C113.191 16.0087 113.047 15.5051 112.614 15.5051Z" fill="#FFFFF3"/>
</svg>
