<svg width="20" height="18" viewBox="0 0 20 18" fill="none" xmlns="http://www.w3.org/2000/svg">
<path d="M16.5378 3.86148L8.88276 10.9414C9.10977 11.242 9.30276 11.5666 9.45776 11.9107L11.3678 16.1642L16.5378 3.86056V3.86148ZM7.53577 9.69561L15.1918 2.61475L1.88877 7.39636L6.48777 9.1638C6.85692 9.30539 7.20832 9.48371 7.53577 9.69561ZM19.1538 2.42422L13.1268 16.7654C12.7468 17.6717 11.6498 18.137 10.6778 17.8049C10.441 17.724 10.2249 17.5987 10.043 17.4368C9.86108 17.2749 9.71733 17.08 9.62076 16.8643L7.71077 12.6108C7.33912 11.7819 6.627 11.1233 5.73077 10.7796L1.13077 9.01305C0.176765 8.64587 -0.259235 7.62573 0.158765 6.7323C0.261259 6.51399 0.409456 6.31661 0.594815 6.15152C0.780175 5.98644 0.99903 5.85692 1.23877 5.77043L16.7448 0.194343C17.0817 0.0687656 17.4511 0.037602 17.807 0.10473C18.163 0.171859 18.4897 0.334315 18.7466 0.57188C19.0034 0.809445 19.1791 1.11163 19.2517 1.44082C19.3242 1.77001 19.2905 2.11168 19.1548 2.4233L19.1538 2.42422Z" fill="white"/>
</svg>
